<?xml version="1.0" encoding="utf-8"?>
<!-- Generator: Adobe Illustrator 19.1.0, SVG Export Plug-In . SVG Version: 6.00 Build 0)  -->
<svg version="1.1" id="Layer_1" xmlns="http://www.w3.org/2000/svg" xmlns:xlink="http://www.w3.org/1999/xlink" x="0px" y="0px"
	 viewBox="-181 183 36 36" style="enable-background:new -181 183 36 36;" xml:space="preserve">
<style type="text/css">
	.st0{fill:#8433EF;}
</style>
<path class="st0" d="M-166.5,199.8c0,0,3.4-0.2,3.4-4.3c0-4-2.8-5.9-6.3-5.9h-6.5h-0.2h-4.9v22.2h4.9h0.2h6.5c0,0,7,0.2,7-6.6
	C-162.4,205.3-162.1,199.8-166.5,199.8z M-170.2,193.6h0.8c0,0,1.6,0,1.6,2.3c0,2.3-0.9,2.6-1.9,2.6h-6.1v-4.9H-170.2z
	 M-169.8,207.9h-6.1V202h6.5c0,0,2.3,0,2.3,3.1C-167.1,207.6-168.8,207.9-169.8,207.9z"/>
<path class="st0" d="M-152.9,195.3c-8.5,0-8.5,8.5-8.5,8.5s-0.6,8.5,8.5,8.5c0,0,7.6,0.4,7.6-5.9h-3.9c0,0,0.1,2.4-3.6,2.4
	c0,0-3.9,0.2-3.9-3.9h11.5C-145.2,204.9-143.9,195.3-152.9,195.3z M-156.8,202c0,0,0.4-3.4,3.9-3.4s3.4,3.4,3.4,3.4H-156.8z"/>
<rect x="-157.7" y="190.9" class="st0" width="9.2" height="2.8"/>
</svg>
