<?xml version="1.0" encoding="utf-8"?>
<!-- Generator: Adobe Illustrator 19.1.0, SVG Export Plug-In . SVG Version: 6.00 Build 0)  -->
<svg version="1.1" id="Layer_1" xmlns="http://www.w3.org/2000/svg" xmlns:xlink="http://www.w3.org/1999/xlink" x="0px" y="0px"
	 viewBox="-288 379 38.2 36" style="enable-background:new -288 379 38.2 36;" xml:space="preserve">
<style type="text/css">
	.st0{fill:#ED1C24;}
	.st1{fill:#FFFFFF;}
</style>
<rect x="-288" y="379" class="st0" width="38.2" height="36"/>
<path class="st1" d="M-272.4,395.8c0,0,3.4-0.2,3.4-4.3c0-4-2.8-5.9-6.3-5.9h-6.5h-0.2h-4.9v22.2h4.9h0.2h6.5c0,0,7,0.2,7-6.6
	C-268.3,401.3-268,395.8-272.4,395.8z M-276.1,389.6h0.8c0,0,1.6,0,1.6,2.3c0,2.3-0.9,2.6-1.9,2.6h-6.1v-4.9H-276.1z M-275.7,403.9
	h-6.1V398h6.5c0,0,2.3,0,2.3,3.1C-273,403.6-274.7,403.9-275.7,403.9z"/>
<path class="st1" d="M-258.8,391.3c-8.5,0-8.5,8.5-8.5,8.5s-0.6,8.5,8.5,8.5c0,0,7.6,0.4,7.6-5.9h-3.9c0,0,0.1,2.4-3.6,2.4
	c0,0-3.9,0.2-3.9-3.9h11.5C-251.1,400.9-249.8,391.3-258.8,391.3z M-262.7,398c0,0,0.4-3.4,3.9-3.4s3.4,3.4,3.4,3.4H-262.7z"/>
<rect x="-263.6" y="386.9" class="st1" width="9.2" height="2.8"/>
</svg>
