<?xml version="1.0" encoding="utf-8"?>
<!-- Generator: Adobe Illustrator 19.1.0, SVG Export Plug-In . SVG Version: 6.00 Build 0)  -->
<svg version="1.1" id="Layer_1" xmlns="http://www.w3.org/2000/svg" xmlns:xlink="http://www.w3.org/1999/xlink" x="0px" y="0px"
	 viewBox="-197 91 36 36" style="enable-background:new -197 91 36 36;" xml:space="preserve">
<style type="text/css">
	.st0{fill:#ED1C24;}
</style>
<g id="MUODtZ.tif">
	<g>
		<path class="st0" d="M-197,118.2c0-9,0-18.1,0-27.2c12,0,24,0,36,0c0,9,0,18.1,0,27.2C-173,118.2-185,118.2-197,118.2z
			 M-165.1,93.6L-165.1,93.6C-165.2,93.6-165.2,93.6-165.1,93.6c-9.2,0-18.4,0-27.5,0l0,0l0,0c0.1,0.1,0.1,0.1,0.2,0.2
			c2.4,2.4,4.8,4.9,7.2,7.3c1.8,1.8,3.4,3.5,5.2,5.2c0.2,0.2,0.3,0.2,0.5,0.3c0.6,0.2,1.4,0.2,1.9-0.3
			C-173.5,102-169.3,97.8-165.1,93.6C-165.2,93.6-165.2,93.6-165.1,93.6z M-165.3,115.6c-0.2-0.2-8.9-9.2-9-9.2l-0.1,0.1
			c-0.6,0.6-1,1-1.6,1.6c-0.1,0.1-0.2,0.2-0.4,0.3c-1,0.7-2,1-3.2,0.8c-1-0.2-1.8-0.6-2.4-1.2c-0.5-0.6-1-1-1.5-1.6l-0.1-0.1
			c-3,3.1-6.1,6.2-9.1,9.3C-183.6,115.6-174.4,115.6-165.3,115.6z M-185.4,104.6c-0.1-0.2-9-9.1-9.1-9.2c0,6.2,0,12.3,0,18.5
			C-191.4,110.8-188.4,107.6-185.4,104.6z M-172.5,104.6c3,3,6,6.2,9,9.2c0-0.2,0-18.2,0-18.2C-166.5,98.6-169.6,101.6-172.5,104.6z
			"/>
	</g>
</g>
</svg>
