<?xml version="1.0" encoding="utf-8"?>
<!-- Generator: Adobe Illustrator 19.1.0, SVG Export Plug-In . SVG Version: 6.00 Build 0)  -->
<svg version="1.1" id="Layer_1" xmlns="http://www.w3.org/2000/svg" xmlns:xlink="http://www.w3.org/1999/xlink" x="0px" y="0px"
	 viewBox="-181 183 36 36" style="enable-background:new -181 183 36 36;" xml:space="preserve">
<style type="text/css">
	.st0{fill:#8433EF;}
</style>
<g id="MUODtZ.tif">
	<g>
		<path class="st0" d="M-181,214.2c0-9,0-18.1,0-27.2c12,0,24,0,36,0c0,9,0,18.1,0,27.2C-157,214.2-169,214.2-181,214.2z
			 M-149.1,189.6L-149.1,189.6C-149.2,189.6-149.2,189.6-149.1,189.6c-9.2,0-18.4,0-27.5,0l0,0l0,0c0.1,0.1,0.1,0.1,0.2,0.2
			c2.4,2.4,4.8,4.9,7.2,7.3c1.8,1.8,3.4,3.5,5.2,5.2c0.2,0.2,0.3,0.2,0.5,0.3c0.6,0.2,1.4,0.2,1.9-0.3
			C-157.5,198-153.3,193.8-149.1,189.6C-149.2,189.6-149.2,189.6-149.1,189.6z M-149.3,211.6c-0.2-0.2-8.9-9.2-9-9.2l-0.1,0.1
			c-0.6,0.6-1,1-1.6,1.6c-0.1,0.1-0.2,0.2-0.4,0.3c-1,0.7-2,1-3.2,0.8c-1-0.2-1.8-0.6-2.4-1.2c-0.5-0.6-1-1-1.5-1.6l-0.1-0.1
			c-3,3.1-6.1,6.2-9.1,9.3C-167.6,211.6-158.4,211.6-149.3,211.6z M-169.4,200.6c-0.1-0.2-9-9.1-9.1-9.2c0,6.2,0,12.3,0,18.5
			C-175.4,206.8-172.4,203.6-169.4,200.6z M-156.5,200.6c3,3,6,6.2,9,9.2c0-0.2,0-18.2,0-18.2C-150.5,194.6-153.6,197.6-156.5,200.6
			z"/>
	</g>
</g>
</svg>
