<?xml version="1.0" encoding="utf-8"?>
<!-- Generator: Adobe Illustrator 19.1.0, SVG Export Plug-In . SVG Version: 6.00 Build 0)  -->
<svg version="1.1" id="Layer_1" xmlns="http://www.w3.org/2000/svg" xmlns:xlink="http://www.w3.org/1999/xlink" x="0px" y="0px"
	 viewBox="-180.9 182.2 40 37.7" style="enable-background:new -180.9 182.2 40 37.7;" xml:space="preserve">
<style type="text/css">
	.st0{fill:#ED1C24;}
	.st1{fill:#FFFFFF;}
</style>
<rect x="-180.9" y="182.2" class="st0" width="40" height="37.7"/>
<g id="MUODtZ.tif">
	<g>
		<path class="st1" d="M-178.9,214.4c0-9,0-18.1,0-27.2c12,0,24,0,36,0c0,9,0,18.1,0,27.2C-154.9,214.4-166.9,214.4-178.9,214.4z
			 M-147,189.8L-147,189.8C-147.1,189.8-147.1,189.8-147,189.8c-9.2,0-18.4,0-27.5,0l0,0l0,0c0.1,0.1,0.1,0.1,0.2,0.2
			c2.4,2.4,4.8,4.9,7.2,7.3c1.8,1.8,3.4,3.5,5.2,5.2c0.2,0.2,0.3,0.2,0.5,0.3c0.6,0.2,1.4,0.2,1.9-0.3
			C-155.4,198.2-151.2,194-147,189.8C-147.1,189.8-147.1,189.8-147,189.8z M-147.2,211.8c-0.2-0.2-8.9-9.2-9-9.2l-0.1,0.1
			c-0.6,0.6-1,1-1.6,1.6c-0.1,0.1-0.2,0.2-0.4,0.3c-1,0.7-2,1-3.2,0.8c-1-0.2-1.8-0.6-2.4-1.2c-0.5-0.6-1-1-1.5-1.6l-0.1-0.1
			c-3,3.1-6.1,6.2-9.1,9.3C-165.5,211.8-156.3,211.8-147.2,211.8z M-167.3,200.8c-0.1-0.2-9-9.1-9.1-9.2c0,6.2,0,12.3,0,18.5
			C-173.3,207-170.3,203.8-167.3,200.8z M-154.4,200.8c3,3,6,6.2,9,9.2c0-0.2,0-18.2,0-18.2C-148.4,194.8-151.5,197.8-154.4,200.8z"
			/>
	</g>
</g>
</svg>
