<?xml version="1.0" encoding="utf-8"?>
<!-- Generator: Adobe Illustrator 19.1.0, SVG Export Plug-In . SVG Version: 6.00 Build 0)  -->
<svg version="1.1" id="Layer_1" xmlns="http://www.w3.org/2000/svg" xmlns:xlink="http://www.w3.org/1999/xlink" x="0px" y="0px"
	 viewBox="-178.9 184 36 33.9" style="enable-background:new -178.9 184 36 33.9;" xml:space="preserve">
<style type="text/css">
	.st0{fill:#8433EF;}
</style>
<g>
	<path class="st0" d="M-173.2,184h25c2.4,0,4.3,1.9,4.3,4.3v25c0,2.4-1.9,4.3-4.3,4.3h-25c-2.4,0-4.3-1.9-4.3-4.3v-25
		C-177.5,186.1-175.6,184-173.2,184z M-153,187.8c-0.9,0-1.5,0.8-1.5,1.5v3.7c0,0.9,0.8,1.5,1.5,1.5h3.8c0.9,0,1.5-0.8,1.5-1.5v-3.7
		c0-0.9-0.8-1.5-1.5-1.5H-153z M-147.7,198.4h-3c0.3,1,0.4,1.8,0.4,2.9c0,5.6-4.7,10.2-10.5,10.2c-5.8,0-10.5-4.6-10.5-10.2
		c0-1.1,0.2-1.9,0.4-2.9h-3.1v14.3c0,0.8,0.5,1.3,1.3,1.3h23.5c0.8,0,1.3-0.5,1.3-1.3v-14.3H-147.7z M-160.7,194.4
		c-3.7,0-6.8,2.9-6.8,6.6c0,3.7,3.1,6.6,6.8,6.6c3.7,0,6.8-2.9,6.8-6.6C-153.9,197.3-157,194.4-160.7,194.4z"/>
</g>
</svg>
