<?xml version="1.0" encoding="utf-8"?>
<!-- Generator: Adobe Illustrator 19.1.0, SVG Export Plug-In . SVG Version: 6.00 Build 0)  -->
<svg version="1.1" id="Layer_1" xmlns="http://www.w3.org/2000/svg" xmlns:xlink="http://www.w3.org/1999/xlink" x="0px" y="0px"
	 viewBox="-288 379 38.2 36" style="enable-background:new -288 379 38.2 36;" xml:space="preserve">
<style type="text/css">
	.st0{fill:#ED1C24;}
	.st1{fill:#FFFFFF;}
</style>
<rect x="-288" y="379" class="st0" width="38.2" height="36"/>
<g>
	<path class="st1" d="M-280.2,381.6h23.3c2.2,0,4,1.8,4,4v23.3c0,2.2-1.8,4-4,4h-23.3c-2.2,0-4-1.8-4-4v-23.3
		C-284.2,383.5-282.4,381.6-280.2,381.6z M-261.4,385.1c-0.8,0-1.4,0.7-1.4,1.4v3.4c0,0.8,0.7,1.4,1.4,1.4h3.5
		c0.8,0,1.4-0.7,1.4-1.4v-3.4c0-0.8-0.7-1.4-1.4-1.4H-261.4z M-256.4,395h-2.8c0.3,0.9,0.4,1.7,0.4,2.7c0,5.2-4.4,9.5-9.8,9.5
		s-9.8-4.3-9.8-9.5c0-1,0.2-1.8,0.4-2.7h-2.9v13.3c0,0.7,0.5,1.2,1.2,1.2h21.9c0.7,0,1.2-0.5,1.2-1.2V395L-256.4,395z M-268.5,391.2
		c-3.4,0-6.3,2.7-6.3,6.1s2.9,6.1,6.3,6.1s6.3-2.7,6.3-6.1C-262.2,393.9-265.1,391.2-268.5,391.2z"/>
</g>
</svg>
