<?xml version="1.0" encoding="utf-8"?>
<!-- Generator: Adobe Illustrator 19.1.0, SVG Export Plug-In . SVG Version: 6.00 Build 0)  -->
<svg version="1.1" id="Layer_1" xmlns="http://www.w3.org/2000/svg" xmlns:xlink="http://www.w3.org/1999/xlink" x="0px" y="0px"
	 viewBox="-161 91 36 36" style="enable-background:new -161 91 36 36;" xml:space="preserve">
<g>
	<path d="M-156.4,91h26.7c2.5,0,4.6,2.1,4.6,4.6v26.7c0,2.5-2.1,4.6-4.6,4.6h-26.7c-2.5,0-4.6-2.1-4.6-4.6V95.6
		C-161,93.1-158.9,91-156.4,91z M-134.8,95c-0.9,0-1.6,0.8-1.6,1.6v3.9c0,0.9,0.8,1.6,1.6,1.6h4c0.9,0,1.6-0.8,1.6-1.6v-3.9
		c0-0.9-0.8-1.6-1.6-1.6H-134.8z M-129.1,106.3h-3.2c0.3,1,0.5,2,0.5,3.1c0,6-5,10.9-11.2,10.9s-11.2-4.9-11.2-10.9
		c0-1.1,0.2-2.1,0.5-3.1h-3.3v15.2c0,0.8,0.6,1.4,1.4,1.4h25.1c0.8,0,1.4-0.6,1.4-1.4L-129.1,106.3L-129.1,106.3z M-143,101.9
		c-3.9,0-7.2,3.1-7.2,7c0,3.9,3.3,7,7.2,7s7.2-3.1,7.2-7C-135.7,105.1-139,101.9-143,101.9z"/>
</g>
</svg>
