<?xml version="1.0" encoding="utf-8"?>
<!-- Generator: Adobe Illustrator 19.1.0, SVG Export Plug-In . SVG Version: 6.00 Build 0)  -->
<svg version="1.1" id="Layer_1" xmlns="http://www.w3.org/2000/svg" xmlns:xlink="http://www.w3.org/1999/xlink" x="0px" y="0px"
	 viewBox="-161 91 36 36" style="enable-background:new -161 91 36 36;" xml:space="preserve">
<g>
	<path d="M-160.4,102.9h7.5v24h-7.5V102.9z M-156.7,91c2.4,0,4.3,1.9,4.3,4.3c0,2.4-1.9,4.3-4.3,4.3c-2.4,0-4.3-1.9-4.3-4.3
		C-161,92.9-159.1,91-156.7,91"/>
	<path d="M-148.3,102.9h7.1v3.3h0.1c1-1.9,3.5-3.9,7.1-3.9c7.6,0,9,5,9,11.4v13.2h-7.4v-11.6c0-2.8-0.1-6.4-3.9-6.4
		c-3.9,0-4.5,3-4.5,6.2v11.9h-7.4V102.9z"/>
</g>
</svg>
