<?xml version="1.0" encoding="utf-8"?>
<!-- Generator: Adobe Illustrator 19.1.0, SVG Export Plug-In . SVG Version: 6.00 Build 0)  -->
<svg version="1.1" id="Layer_1" xmlns="http://www.w3.org/2000/svg" xmlns:xlink="http://www.w3.org/1999/xlink" x="0px" y="0px"
	 viewBox="-178.9 184 36 33.9" style="enable-background:new -178.9 184 36 33.9;" xml:space="preserve">
<style type="text/css">
	.st0{fill:#8433EF;}
</style>
<g>
	<path class="st0" d="M-177.3,195.3h7.1v22.6h-7.1V195.3z M-173.9,184c2.2,0,4,1.8,4,4s-1.8,4-4,4c-2.2,0-4-1.8-4-4
		S-176.1,184-173.9,184"/>
	<path class="st0" d="M-165.9,195.3h6.7v3.1h0.1c1-1.8,3.3-3.7,6.7-3.7c7.2,0,8.5,4.7,8.5,10.7v12.4h-7v-10.9c0-2.7-0.1-6.1-3.7-6.1
		c-3.7,0-4.2,2.9-4.2,5.8V218h-7L-165.9,195.3L-165.9,195.3z"/>
</g>
</svg>
