<?xml version="1.0" encoding="utf-8"?>
<!-- Generator: Adobe Illustrator 19.1.0, SVG Export Plug-In . SVG Version: 6.00 Build 0)  -->
<svg version="1.1" id="Layer_1" xmlns="http://www.w3.org/2000/svg" xmlns:xlink="http://www.w3.org/1999/xlink" x="0px" y="0px"
	 viewBox="-182.1 181 42.4 40" style="enable-background:new -182.1 181 42.4 40;" xml:space="preserve">
<style type="text/css">
	.st0{fill:#ED1C24;}
	.st1{fill:#FFFFFF;}
</style>
<rect x="-182.1" y="181" class="st0" width="42.4" height="40"/>
<g>
	<path class="st1" d="M-176.3,195.6h6.7v21.3h-6.7V195.6z M-173.1,185c2.1,0,3.8,1.7,3.8,3.8s-1.7,3.8-3.8,3.8s-3.8-1.7-3.8-3.8
		S-175.2,185-173.1,185"/>
	<path class="st1" d="M-165.6,195.6h6.3v2.9h0.1c0.9-1.7,3.1-3.5,6.3-3.5c6.8,0,8,4.4,8,10.1v11.7h-6.6v-10.3c0-2.5-0.1-5.7-3.5-5.7
		c-3.5,0-4,2.7-4,5.5V217h-6.6L-165.6,195.6L-165.6,195.6z"/>
</g>
</svg>
