<?xml version="1.0" encoding="utf-8"?>
<!-- Generator: Adobe Illustrator 19.1.0, SVG Export Plug-In . SVG Version: 6.00 Build 0)  -->
<svg version="1.1" id="Layer_1" xmlns="http://www.w3.org/2000/svg" xmlns:xlink="http://www.w3.org/1999/xlink" x="0px" y="0px"
	 viewBox="-197 91 36 36" style="enable-background:new -197 91 36 36;" xml:space="preserve">
<path d="M-182.4,101.2c0,0,3.4-0.2,3.4-4.3c0-4-2.8-5.9-6.3-5.9h-6.5h-0.2h-4.9v22.2h4.9h0.2h6.5c0,0,7,0.2,7-6.6
	C-178.3,106.7-178,101.2-182.4,101.2z M-186.1,95h0.8c0,0,1.6,0,1.6,2.3s-0.9,2.6-1.9,2.6h-6.1V95H-186.1z M-185.7,109.3h-6.1v-5.9
	h6.5c0,0,2.3,0,2.3,3.1C-183,109-184.7,109.3-185.7,109.3z"/>
<path d="M-168.8,96.7c-8.5,0-8.5,8.5-8.5,8.5s-0.6,8.5,8.5,8.5c0,0,7.6,0.4,7.6-5.9h-3.9c0,0,0.1,2.4-3.6,2.4c0,0-3.9,0.2-3.9-3.9
	h11.5C-161.1,106.3-159.8,96.7-168.8,96.7z M-172.7,103.4c0,0,0.4-3.4,3.9-3.4s3.4,3.4,3.4,3.4H-172.7z"/>
<rect x="-173.6" y="92.3" width="9.2" height="2.8"/>
</svg>
