<?xml version="1.0" encoding="utf-8"?>
<!-- Generator: Adobe Illustrator 19.1.0, SVG Export Plug-In . SVG Version: 6.00 Build 0)  -->
<svg version="1.1" id="Layer_1" xmlns="http://www.w3.org/2000/svg" xmlns:xlink="http://www.w3.org/1999/xlink" x="0px" y="0px"
	 viewBox="-179 73 72 72" style="enable-background:new -179 73 72 72;" xml:space="preserve">
<path d="M-146.7,106c0,0,4.5-0.3,4.5-5.7c0-5.3-3.7-7.9-8.4-7.9h-8.7h-0.3h-6.6v29.7h6.6h0.3h8.7c0,0,9.4,0.3,9.4-8.8
	C-141.2,113.4-140.8,106-146.7,106z M-151.7,97.7h1.1c0,0,2.1,0,2.1,3.1c0,3.1-1.2,3.5-2.6,3.5h-8.1v-6.6H-151.7z M-151.1,116.9
	h-8.2V109h8.7c0,0,3.1,0,3.1,4.1C-147.5,116.5-149.8,116.8-151.1,116.9z"/>
<path d="M-128.6,100c-11.4,0-11.4,11.4-11.4,11.4s-0.8,11.4,11.4,11.4c0,0,10.2,0.6,10.2-7.9h-5.2c0,0,0.2,3.2-4.8,3.2
	c0,0-5.2,0.3-5.2-5.2h15.4C-118.2,112.9-116.5,100-128.6,100z M-133.7,108.9c0,0,0.6-4.6,5.2-4.6s4.5,4.6,4.5,4.6H-133.7z"/>
<rect x="-135" y="94.2" width="12.3" height="3.7"/>
</svg>
