<svg id="Layer_1" xmlns="http://www.w3.org/2000/svg" viewBox="0 0 72 72"><style>.st0{fill:#383838;} .st1{fill:#FFFFFF;}</style><path class="st0" d="M-.1 0H72v72H-.1z"/><path class="st1" d="M12.1 54V18h47.6v36H12.1zm42.3-32.6c-.1 0-.1 0 0 0H17.9l.2.2c3.2 3.2 6.4 6.5 9.5 9.6 2.2 2.4 4.6 4.6 6.8 6.9.2.2.4.4.6.5.8.4 1.9.2 2.6-.5 5.5-5.5 11.1-11.2 16.6-16.7.2.1.2 0 .2 0zm-.3 29.2c-.2-.2-11.8-12.1-11.9-12.2l-.1.1-2.1 2.1-.5.5c-1.3.9-2.7 1.3-4.2 1.1-1.3-.2-2.3-.8-3.2-1.7-.7-.7-1.4-1.4-2-2.1l-.1-.2c-4 4.1-8 8.2-12 12.4h36.1zM27.5 36c-.1-.2-11.9-12.1-12-12.1v24.5c4-4.3 8-8.4 12-12.4zm17.1 0c4 4.1 7.9 8.1 11.9 12.2V24.1C52.5 28 48.6 32 44.6 36z" id="MUODtZ.tif"/></svg>