<?xml version="1.0" encoding="utf-8"?>
<!-- Generator: Adobe Illustrator 19.1.0, SVG Export Plug-In . SVG Version: 6.00 Build 0)  -->
<svg version="1.1" id="Layer_1" xmlns="http://www.w3.org/2000/svg" xmlns:xlink="http://www.w3.org/1999/xlink" x="0px" y="0px"
	 viewBox="-251 37 144 144" style="enable-background:new -251 37 144 144;" xml:space="preserve">
<style type="text/css">
	.st0{fill:#ED1C24;}
</style>
<g id="MUODtZ.tif">
	<g>
		<path class="st0" d="M-251,145.8c0-36,0-72.4,0-108.8c48,0,96,0,144,0c0,36,0,72.4,0,108.8C-155,145.8-203,145.8-251,145.8z
			 M-123.4,47.4L-123.4,47.4C-123.8,47.4-123.8,47.4-123.4,47.4c-36.8,0-73.6,0-110,0l0,0l0,0c0.4,0.4,0.4,0.4,0.8,0.8
			c9.6,9.6,19.2,19.6,28.8,29.2c7.2,7.2,13.6,14,20.8,20.8c0.8,0.8,1.2,0.8,2,1.2c2.4,0.8,5.6,0.8,7.6-1.2
			C-157,81-140.2,64.2-123.4,47.4C-123.8,47.4-123.8,47.4-123.4,47.4z M-124.2,135.4c-0.8-0.8-35.6-36.8-36-36.8l-0.4,0.4
			c-2.4,2.4-4,4-6.4,6.4c-0.4,0.4-0.8,0.8-1.6,1.2c-4,2.8-8,4-12.8,3.2c-4-0.8-7.2-2.4-9.6-4.8c-2-2.4-4-4-6-6.4l-0.4-0.4
			c-12,12.4-24.4,24.8-36.4,37.2C-197.4,135.4-160.6,135.4-124.2,135.4z M-204.6,91.4c-0.4-0.8-36-36.4-36.4-36.8
			c0,24.8,0,49.2,0,74C-228.6,116.2-216.6,103.4-204.6,91.4z M-153,91.4c12,12,24,24.8,36,36.8c0-0.8,0-72.8,0-72.8
			C-129,67.4-141.4,79.4-153,91.4z"/>
	</g>
</g>
</svg>
