<?xml version="1.0" encoding="utf-8"?>
<!-- Generator: Adobe Illustrator 19.1.0, SVG Export Plug-In . SVG Version: 6.00 Build 0)  -->
<svg version="1.1" id="Layer_1" xmlns="http://www.w3.org/2000/svg" xmlns:xlink="http://www.w3.org/1999/xlink" x="0px" y="0px"
	 viewBox="-179 73 72 72" style="enable-background:new -179 73 72 72;" xml:space="preserve">
<g id="MUODtZ.tif">
	<g>
		<path d="M-166.9,127c0-12,0-24,0-36c15.9,0,31.8,0,47.6,0c0,12,0,24,0,36C-135.1,127-151,127-166.9,127z M-124.6,94.4L-124.6,94.4
			C-124.7,94.4-124.7,94.4-124.6,94.4c-12.2,0-24.3,0-36.5,0l0,0l0,0c0.1,0.1,0.1,0.1,0.2,0.2c3.2,3.2,6.4,6.5,9.5,9.6
			c2.2,2.4,4.6,4.6,6.8,6.9c0.2,0.2,0.4,0.4,0.6,0.5c0.8,0.4,1.9,0.2,2.6-0.5c5.5-5.5,11.1-11.2,16.6-16.7
			C-124.6,94.5-124.6,94.4-124.6,94.4z M-124.9,123.6c-0.2-0.2-11.8-12.1-11.9-12.2l-0.1,0.1c-0.7,0.7-1.4,1.4-2.1,2.1
			c-0.1,0.1-0.4,0.4-0.5,0.5c-1.3,0.9-2.7,1.3-4.2,1.1c-1.3-0.2-2.3-0.8-3.2-1.7c-0.7-0.7-1.4-1.4-2-2.1l-0.1-0.2
			c-4,4.1-8,8.2-12,12.4C-149,123.6-137,123.6-124.9,123.6z M-151.5,109c-0.1-0.2-11.9-12.1-12-12.1c0,8.1,0,16.2,0,24.5
			C-159.5,117.1-155.5,113-151.5,109z M-134.4,109c4,4.1,7.9,8.1,11.9,12.2c0-0.2,0-24,0-24.1C-126.5,101-130.4,105-134.4,109z"/>
	</g>
</g>
</svg>
