<?xml version="1.0" encoding="utf-8"?>
<!-- Generator: Adobe Illustrator 19.1.0, SVG Export Plug-In . SVG Version: 6.00 Build 0)  -->
<svg version="1.1" id="Layer_1" xmlns="http://www.w3.org/2000/svg" xmlns:xlink="http://www.w3.org/1999/xlink" x="0px" y="0px"
	 viewBox="-161 91 36 36" style="enable-background:new -161 91 36 36;" xml:space="preserve">
<g id="MUODtZ.tif">
	<g>
		<path d="M-161,118.2c0-9,0-18.1,0-27.2c12,0,24,0,36,0c0,9,0,18.1,0,27.2C-137,118.2-149,118.2-161,118.2z M-129.1,93.6
			L-129.1,93.6C-129.2,93.6-129.2,93.6-129.1,93.6c-9.2,0-18.4,0-27.5,0l0,0l0,0c0.1,0.1,0.1,0.1,0.2,0.2c2.4,2.4,4.8,4.9,7.2,7.3
			c1.8,1.8,3.4,3.5,5.2,5.2c0.2,0.2,0.3,0.2,0.5,0.3c0.6,0.2,1.4,0.2,1.9-0.3C-137.5,102-133.3,97.8-129.1,93.6
			C-129.2,93.6-129.2,93.6-129.1,93.6z M-129.3,115.6c-0.2-0.2-8.9-9.2-9-9.2l-0.1,0.1c-0.6,0.6-1,1-1.6,1.6
			c-0.1,0.1-0.2,0.2-0.4,0.3c-1,0.7-2,1-3.2,0.8c-1-0.2-1.8-0.6-2.4-1.2c-0.5-0.6-1-1-1.5-1.6l-0.1-0.1c-3,3.1-6.1,6.2-9.1,9.3
			C-147.6,115.6-138.4,115.6-129.3,115.6z M-149.4,104.6c-0.1-0.2-9-9.1-9.1-9.2c0,6.2,0,12.3,0,18.5
			C-155.4,110.8-152.4,107.6-149.4,104.6z M-136.5,104.6c3,3,6,6.2,9,9.2c0-0.2,0-18.2,0-18.2C-130.5,98.6-133.6,101.6-136.5,104.6z
			"/>
	</g>
</g>
</svg>
