<?xml version="1.0" encoding="utf-8"?>
<!-- Generator: Adobe Illustrator 19.1.0, SVG Export Plug-In . SVG Version: 6.00 Build 0)  -->
<svg version="1.1" id="Layer_1" xmlns="http://www.w3.org/2000/svg" xmlns:xlink="http://www.w3.org/1999/xlink" x="0px" y="0px"
	 viewBox="-288 379 38.2 36" style="enable-background:new -288 379 38.2 36;" xml:space="preserve">
<style type="text/css">
	.st0{fill:#ED1C24;}
	.st1{fill:#FFFFFF;}
</style>
<rect x="-288" y="379" class="st0" width="38.2" height="36"/>
<g id="MUODtZ.tif">
	<g>
		<path class="st1" d="M-286.9,410.4c0-9,0-18.1,0-27.2c12,0,24,0,36,0c0,9,0,18.1,0,27.2C-262.9,410.4-274.9,410.4-286.9,410.4z
			 M-255,385.8L-255,385.8C-255.1,385.8-255.1,385.8-255,385.8c-9.2,0-18.4,0-27.5,0l0,0l0,0c0.1,0.1,0.1,0.1,0.2,0.2
			c2.4,2.4,4.8,4.9,7.2,7.3c1.8,1.8,3.4,3.5,5.2,5.2c0.2,0.2,0.3,0.2,0.5,0.3c0.6,0.2,1.4,0.2,1.9-0.3
			C-263.4,394.2-259.2,390-255,385.8C-255.1,385.8-255.1,385.8-255,385.8z M-255.2,407.8c-0.2-0.2-8.9-9.2-9-9.2l-0.1,0.1
			c-0.6,0.6-1,1-1.6,1.6c-0.1,0.1-0.2,0.2-0.4,0.3c-1,0.7-2,1-3.2,0.8c-1-0.2-1.8-0.6-2.4-1.2c-0.5-0.6-1-1-1.5-1.6l-0.1-0.1
			c-3,3.1-6.1,6.2-9.1,9.3C-273.5,407.8-264.3,407.8-255.2,407.8z M-275.3,396.8c-0.1-0.2-9-9.1-9.1-9.2c0,6.2,0,12.3,0,18.5
			C-281.3,403-278.3,399.8-275.3,396.8z M-262.4,396.8c3,3,6,6.2,9,9.2c0-0.2,0-18.2,0-18.2C-256.4,390.8-259.5,393.8-262.4,396.8z"
			/>
	</g>
</g>
</svg>
