<?xml version="1.0" encoding="utf-8"?>
<!-- Generator: Adobe Illustrator 19.1.0, SVG Export Plug-In . SVG Version: 6.00 Build 0)  -->
<svg version="1.1" id="Layer_1" xmlns="http://www.w3.org/2000/svg" xmlns:xlink="http://www.w3.org/1999/xlink" x="0px" y="0px"
	 viewBox="-179 73 72 72" style="enable-background:new -179 73 72 72;" xml:space="preserve">
<style type="text/css">
	.st0{fill:#231F20;}
</style>
<polygon class="st0" points="-178.9,144.9 -178.9,145 -107,145 -107,73 -179,73 -179,145 -178.9,145 -178.9,144.9 -178.9,144.9 
	-178.9,73.1 -107.1,73.1 -107.1,144.9 -178.9,144.9 -178.9,144.9 "/>
<path d="M-160.6,85.3h35.2c3.3,0,6.1,2.7,6.1,6.1v35.2c0,3.3-2.7,6.1-6.1,6.1h-35.2c-3.3,0-6.1-2.7-6.1-6.1V91.4
	C-166.7,88.1-163.9,85.3-160.6,85.3z M-132.2,90.6c-1.2,0-2.1,1-2.1,2.1v5.1c0,1.2,1,2.1,2.1,2.1h5.3c1.2,0,2.1-1,2.1-2.1v-5.1
	c0-1.2-1-2.1-2.1-2.1H-132.2z M-124.7,105.4h-4.2c0.4,1.3,0.6,2.6,0.6,4.1c0,7.9-6.6,14.3-14.7,14.3s-14.7-6.4-14.7-14.3
	c0-1.4,0.2-2.8,0.6-4.1h-4.3v20c0,1,0.8,1.9,1.9,1.9h33c1,0,1.9-0.8,1.9-1.9L-124.7,105.4L-124.7,105.4z M-143,99.7
	c-5.2,0-9.5,4.1-9.5,9.2s4.3,9.2,9.5,9.2s9.5-4.1,9.5-9.2C-133.4,103.8-137.7,99.7-143,99.7z"/>
</svg>
