<?xml version="1.0" encoding="utf-8"?>
<!-- Generator: Adobe Illustrator 19.1.0, SVG Export Plug-In . SVG Version: 6.00 Build 0)  -->
<svg version="1.1" id="Layer_1" xmlns="http://www.w3.org/2000/svg" xmlns:xlink="http://www.w3.org/1999/xlink" x="0px" y="0px"
	 viewBox="-288 379 38.2 36" style="enable-background:new -288 379 38.2 36;" xml:space="preserve">
<style type="text/css">
	.st0{fill:#ED1C24;}
	.st1{fill:#FFFFFF;}
</style>
<rect x="-288" y="379" class="st0" width="38.2" height="36"/>
<g>
	<path class="st1" d="M-284.3,391.6h6.7v21.3h-6.7V391.6z M-281.1,381c2.1,0,3.8,1.7,3.8,3.8s-1.7,3.8-3.8,3.8s-3.8-1.7-3.8-3.8
		S-283.2,381-281.1,381"/>
	<path class="st1" d="M-273.6,391.6h6.3v2.9h0.1c0.9-1.7,3.1-3.5,6.3-3.5c6.8,0,8,4.4,8,10.1v11.7h-6.6v-10.3c0-2.5-0.1-5.7-3.5-5.7
		c-3.5,0-4,2.7-4,5.5V413h-6.6L-273.6,391.6L-273.6,391.6z"/>
</g>
</svg>
