<?xml version="1.0" encoding="utf-8"?>
<!-- Generator: Adobe Illustrator 19.1.0, SVG Export Plug-In . SVG Version: 6.00 Build 0)  -->
<svg version="1.1" id="Layer_1" xmlns="http://www.w3.org/2000/svg" xmlns:xlink="http://www.w3.org/1999/xlink" x="0px" y="0px"
	 viewBox="-179 73 72 72" style="enable-background:new -179 73 72 72;" xml:space="preserve">
<path d="M-166.7,100.8h10.2v32.6h-10.2V100.8z M-161.6,84.6c3.2,0,5.9,2.6,5.9,5.9c0,3.2-2.6,5.9-5.9,5.9c-3.3,0-5.9-2.6-5.9-5.9
	S-164.9,84.6-161.6,84.6"/>
<path d="M-150.2,100.8h9.7v4.5h0.1c1.4-2.6,4.7-5.3,9.6-5.3c10.3,0,12.2,6.8,12.2,15.5v17.9h-10.1v-15.8c0-3.8-0.1-8.7-5.3-8.7
	c-5.3,0-6.1,4.1-6.1,8.4v16.1h-10.1V100.8z"/>
</svg>
