<?xml version="1.0" encoding="utf-8"?>
<!-- Generator: Adobe Illustrator 19.2.1, SVG Export Plug-In . SVG Version: 6.00 Build 0)  -->
<svg version="1.1" id="Layer_1" xmlns="http://www.w3.org/2000/svg" xmlns:xlink="http://www.w3.org/1999/xlink" x="0px" y="0px"
	 viewBox="0 0 144 72" style="enable-background:new 0 0 144 72;" xml:space="preserve">
<style type="text/css">
	.st0{fill:#333333;}
</style>
<g id="Layer_1_1_">
</g>
<g id="Layer_2">
</g>
<g id="Layer_3">
	<g>
		<path class="st0" d="M85.4,25.9c-0.2-0.2-1-1-1.6-0.9c-1.8,0.5-0.5,4.8,0.5,9.3c1.7-0.6,3.7-1,5.8-1.4V33
			c-2.1,0.4-4.1,0.9-5.8,1.4c0.7,3.1,1.3,6.1,0.8,8.1c-2.5,9.5-13.7,7.1-12.4,0.4c0.6-2.7,2.8-5.3,8.9-7.6L81.3,34
			c-1.1-3.4-1.3-9.1,2.5-9.1C84.6,24.9,85.3,25.7,85.4,25.9L85.4,25.9z M81.7,35.3c-6.1,2.3-8.1,5-8.7,7.3c-1.4,5.8,6.3,8,9.7,4
			C84.7,44.1,82.4,37.9,81.7,35.3z"/>
		<path class="st0" d="M65.4,41.5c2.4-6.7,5.4-13.6,9.1-19.8c0.8-0.4,2.7,0.3,2.9,1.2c-3.9,6-6.8,13.3-9.4,20.5
			c2.3-1.7,5.1-3.7,8.2-5.3l-0.1,0.1c-3,1.5-5.9,3.8-8.2,5.5c-4.3,12.3-7,23.8-10.1,26c-2.7,1.9-4.7,0.7-4.9-2.1
			c-0.2-3.3,1.9-12,10.5-20.3l1.9-5.5c-3.3,3.4-6.4,3.8-7.4,3c-3.1-2,0.8-14.8,5.3-19.7c0.4-0.3,2.6,0,3.2,0.8
			c-3.7,4.6-7.8,16.7-5.4,18.2C61,44.3,62.1,44.7,65.4,41.5z M63.2,47.6C54.8,56,52.9,64.4,53.1,67.4c0.2,1.8,0.9,2.9,1.7,2.8
			C56.9,69.7,59.2,59.8,63.2,47.6z"/>
		<path class="st0" d="M98.1,21.6c1.8,0.2,3.8-0.3,7.2-1.5l0.1,0.1c-3.5,1.2-4.9,1.7-7.3,1.5c-4.8,8.8-7.7,17.9-5.8,22.9
			c0.2,0.5,0.6,0.7,0.9,0.5c2.4-0.7,5.6-5.3,6.3-7.7l0.1,0.1c-1.3,3.7-5.1,8.7-8.7,8.3c-0.8-0.1-1.4-0.3-1.8-0.9
			c-2-4.2,0.6-13.6,5.8-23.2c-1.9-0.2-3.4-0.4-4.6-0.7v-0.2c1.1,0.2,2.7,0.5,4.6,0.7c1.6-2.8,3.3-5.6,5.3-8.4
			c0.4-0.1,2.3,0.4,2.6,1.3C101.1,16.7,99.6,19.1,98.1,21.6z"/>
		<path class="st0" d="M106.2,28.8c-0.7,0.7-5.9,13.9-4.8,16.6c0.1,0.3,0.3,0.4,0.7,0.4c2.5,0,6-4.5,6.3-7.4l0.1,0.1
			c-0.4,4.1-6.3,10.4-9.5,6.6c-2.6-2.9,3.1-16.1,4-18C104.4,26.9,106.3,28.5,106.2,28.8z M108.3,20c0.7,2.1-0.5,4.6-1.5,5.1
			c-0.4,0.3-2.5-0.7-2.3-1.3c0.6-1.3,0.7-3.7,0.7-4.4C105.3,18.9,108.2,19.6,108.3,20z"/>
		<path class="st0" d="M126.8,38.5c-0.9,4.1-4.8,9.6-8,6.5c-2.7-2.6,1.5-15.8,2.6-18c-2-0.2-6.1,3.4-7.5,5.6
			c-1.7,3.7-2.9,8.3-3.3,13.2c-0.4,0.8-2.8,0.7-3.4,0c0-6.6,4.2-20.4,9.8-23.7c0.4-0.3,3.1,0.3,3.1,1.4c-2.1,1.9-4.2,4.8-6,8.5
			c1.6-2.3,4.5-4.5,6.4-5.2c0.8-0.2,3.1-0.4,3.9,1.1c-0.6,1.2-4.4,14.1-3.3,17.2c0.3,0.3,0.5,0.4,0.8,0.4c1.9-0.6,4.2-4.2,4.7-7.1
			L126.8,38.5z M113.4,33.4c-0.1,0.1-0.1,0.1-0.1,0.2L113.4,33.4z"/>
		<path class="st0" d="M130.6,45.7c1.2-0.2,7.9-2.8,11-9h0.1c-2.6,6.4-15.9,14.3-16.4,5.5c-0.4-5.3,4-14.1,9.3-15.7
			c2.8-0.8,6.7-1.2,6.4,1.4c-0.2,1.9-6.3,7-11.5,9.9c-0.9,3.2-1.1,6.1-0.2,7.3C129.5,45.5,130,45.9,130.6,45.7z M137.8,26.2
			c-3.4,0.2-6.8,6-8.3,11.3c4.9-2.8,11.4-8,11.2-10C140.6,26.5,139.2,26.1,137.8,26.2z"/>
		<g>
			<path class="st0" d="M51.2,46.4c-0.6,0-1.1-0.6-1.4-1.1c-3.1-4.6-2.9-11.7-2.7-14.5c0.7-8.5,4-18.2,10-29
				c-0.2-0.1-0.7-0.3-1.3-0.3s-1.2,0.2-1.6,0.6l0,0l0,0v0.1h-0.1c-0.1,0.2-0.3,0.3-0.4,0.5l0.1,0.1C45.3,18,41,30.5,45.6,45.4
				c0.5,1.7,1.4,2.5,2.6,2.5c1.2,0,2.6-0.8,4-2.1c-0.2,0.2-0.4,0.3-0.6,0.4C51.5,46.3,51.3,46.4,51.2,46.4z M33.1,23.6
				c-0.6,0.9-1.2,1.7-1.7,2.5C32,25.3,32.6,24.5,33.1,23.6z M31.4,26.1c-0.3,0.4-0.6,0.8-0.9,1.2C30.8,26.9,31.1,26.5,31.4,26.1z
				 M11.4,44.3c3.3-1.4,7.7-4.6,12.1-8.9c1.8-1.8,4.4-4.5,7-8c-2,2.6-3.9,4.8-5.4,6.3C21,37.9,15.4,42.5,11.4,44.3z M3.4,40.9
				c-0.1-0.5-0.1-1.1-0.1-1.7C3.3,39.8,3.3,40.5,3.4,40.9c0.3,2.1,1.4,3.4,3.2,3.9C4.8,44.3,3.7,42.9,3.4,40.9z"/>
			<path class="st0" d="M3.4,41c-0.1-0.6-0.1-1.2-0.1-1.8C3.3,39.8,3.3,40.4,3.4,41c0.3,2,1.4,3.3,3.2,3.8C4.8,44.3,3.7,43,3.4,41z
				 M35.2,7.2c-9.1,3.6-17.3,9-23.3,15.5C6,29.3,2.5,36.4,3.2,41c0.4,2.7,2.1,4.1,4.9,4.1c0.1,0,0.3,0,0.4,0c3.3-0.1,9.2-3.9,15-9.7
				c3.8-3.8,10.8-11.6,15.3-21.9c-2.5,9.7-1.8,15.2-0.3,17.2c0.6,0.8,1.4,1.2,2.3,1.2c0.1,0,0.2,0,0.3,0h0.1v-0.1
				c0-0.2,2.9-16.9,12-28.5c-8.2,15-12.3,27.4-7.8,42.1c0.5,1.7,1.5,2.6,2.8,2.6c1.6,0,3.7-1.4,5.7-3.8c1.9-2.3,3.3-5.1,3.6-7.2
				v-0.1l-0.1-0.1v0.1c-1.8,6.3-4.9,8.7-5.8,9.1c-0.1,0.1-0.3,0.1-0.4,0.1c-0.5,0-1-0.6-1.2-1.1c-2.2-3.2-3.1-8.4-2.7-14.4
				c0.7-8.4,4-18.2,10-29V1.5l0,0c-0.2-0.2-0.8-0.4-1.5-0.4c-0.6,0-1.2,0.2-1.7,0.7L54,1.9l0,0l0,0c-6,7.1-10.6,17.4-13,29
				c0,0.1,0,0.1,0,0.2c-1.5-6.4,1.8-20.4,3.6-25.9V5.1h-0.1c-0.4-0.2-0.9-0.2-1.5-0.2S41.8,5,41.4,5.1l-0.2,0.1L41,5.8
				c-3.3,13-11.5,23-16.1,27.8C18,40.8,11.3,44.8,8.6,44.9H8.4c-2.8,0-4.5-1.4-4.8-4c-0.6-4.6,2.8-11.6,8.8-18
				c6-6.5,14.1-11.7,23.1-15.2 M11.4,44.3c4-1.8,9.6-6.3,13.7-10.6c1.5-1.6,3.4-3.7,5.4-6.3c-2.6,3.5-5.2,6.2-7,8
				C19.1,39.7,14.7,42.9,11.4,44.3z M33.1,23.6c-0.6,0.9-1.1,1.7-1.7,2.5C32,25.3,32.5,24.5,33.1,23.6z M53.8,2.6L53.8,2.6
				c0-0.3,0.2-0.4,0.3-0.6h0.1l0,0l0,0l0,0c0.5-0.4,1-0.6,1.6-0.6s1.1,0.2,1.3,0.3c-6,10.8-9.3,20.6-10,29
				c-0.2,2.8-0.4,9.9,2.7,14.5c0.2,0.5,0.7,1.1,1.4,1.1c0.2,0,0.3,0,0.5-0.1s0.4-0.2,0.6-0.4c-1.4,1.3-2.8,2.1-4,2.1
				s-2.1-0.8-2.6-2.5C41,30.5,45.3,18,53.8,2.6z"/>
		</g>
	</g>
</g>
</svg>
