<?xml version="1.0" encoding="utf-8"?>
<!-- Generator: Adobe Illustrator 19.2.1, SVG Export Plug-In . SVG Version: 6.00 Build 0)  -->
<svg version="1.1" id="Layer_1" xmlns="http://www.w3.org/2000/svg" xmlns:xlink="http://www.w3.org/1999/xlink" x="0px" y="0px"
	 viewBox="0 0 288 144" style="enable-background:new 0 0 288 144;" xml:space="preserve">
<style type="text/css">
	.st0{fill:#333333;}
</style>
<g id="Layer_1_1_">
</g>
<g id="Layer_2">
</g>
<g id="Layer_3">
	<g>
		<path class="st0" d="M170.5,53.1c-0.4-0.4-1.9-1.9-3.1-1.7c-3.5,1-1,9.3,1,18c3.3-1.2,7.2-1.9,11.2-2.7v0.2
			c-4.1,0.8-7.9,1.7-11.2,2.7c1.4,6,2.5,11.8,1.5,15.7c-4.8,18.4-26.5,13.7-24,0.8c1.2-5.2,5.4-10.3,17.2-14.7l-0.6-2.5
			c-2.1-6.6-2.5-17.6,4.8-17.6C169,51.2,170.4,52.7,170.5,53.1L170.5,53.1z M163.4,71.3c-11.8,4.5-15.7,9.7-16.8,14.1
			c-2.7,11.2,12.2,15.5,18.8,7.7C169.2,88.3,164.7,76.3,163.4,71.3z"/>
		<path class="st0" d="M131.8,83.3c4.6-13,10.4-26.3,17.6-38.3c1.5-0.8,5.2,0.6,5.6,2.3c-7.5,11.6-13.2,25.7-18.2,39.7
			c4.5-3.3,9.9-7.2,15.9-10.3l-0.2,0.2c-5.8,2.9-11.4,7.4-15.9,10.6c-8.3,23.8-13.5,46.1-19.5,50.3c-5.2,3.7-9.1,1.4-9.5-4.1
			c-0.4-6.4,3.7-23.2,20.3-39.3l3.7-10.6c-6.4,6.6-12.4,7.4-14.3,5.8c-6-3.9,1.5-28.6,10.3-38.1c0.8-0.6,5,0,6.2,1.5
			c-7.2,8.9-15.1,32.3-10.4,35.2C123.3,88.7,125.5,89.5,131.8,83.3z M127.6,95.1c-16.3,16.3-19.9,32.5-19.5,38.3
			c0.4,3.5,1.7,5.6,3.3,5.4C115.4,137.8,119.8,118.7,127.6,95.1z"/>
		<path class="st0" d="M195.1,44.8c3.5,0.4,7.4-0.6,13.9-2.9l0.2,0.2c-6.8,2.3-9.5,3.3-14.1,2.9c-9.3,17-14.9,34.6-11.2,44.3
			c0.4,1,1.2,1.4,1.7,1c4.6-1.4,10.8-10.3,12.2-14.9l0.2,0.2c-2.5,7.2-9.9,16.8-16.8,16.1c-1.5-0.2-2.7-0.6-3.5-1.7
			c-3.9-8.1,1.2-26.3,11.2-44.9c-3.7-0.4-6.6-0.8-8.9-1.4v-0.4c2.1,0.4,5.2,1,8.9,1.4c3.1-5.4,6.4-10.8,10.3-16.3
			c0.8-0.2,4.5,0.8,5,2.5C200.9,35.3,198,39.9,195.1,44.8z"/>
		<path class="st0" d="M210.8,58.7c-1.4,1.4-11.4,26.9-9.3,32.1c0.2,0.6,0.6,0.8,1.4,0.8c4.8,0,11.6-8.7,12.2-14.3l0.2,0.2
			c-0.8,7.9-12.2,20.1-18.4,12.8c-5-5.6,6-31.2,7.7-34.8C207.3,55,211,58.1,210.8,58.7z M214.9,41.7c1.4,4.1-1,8.9-2.9,9.9
			c-0.8,0.6-4.8-1.4-4.5-2.5c1.2-2.5,1.4-7.2,1.4-8.5C209.1,39.5,214.7,40.9,214.9,41.7z"/>
		<path class="st0" d="M250.7,77.5c-1.7,7.9-9.3,18.6-15.5,12.6c-5.2-5,2.9-30.6,5-34.8c-3.9-0.4-11.8,6.6-14.5,10.8
			c-3.3,7.2-5.6,16.1-6.4,25.5c-0.8,1.5-5.4,1.4-6.6,0c0-12.8,8.1-39.5,19-45.9c0.8-0.6,6,0.6,6,2.7c-4.1,3.7-8.1,9.3-11.6,16.4
			c3.1-4.5,8.7-8.7,12.4-10.1c1.5-0.4,6-0.8,7.5,2.1c-1.2,2.3-8.5,27.3-6.4,33.3c0.6,0.6,1,0.8,1.5,0.8c3.7-1.2,8.1-8.1,9.1-13.7
			L250.7,77.5z M224.7,67.6c-0.2,0.2-0.2,0.2-0.2,0.4L224.7,67.6z"/>
		<path class="st0" d="M258,91.4c2.3-0.4,15.3-5.4,21.3-17.4h0.2c-5,12.4-30.8,27.7-31.7,10.6c-0.8-10.3,7.7-27.3,18-30.4
			c5.4-1.5,13-2.3,12.4,2.7c-0.4,3.7-12.2,13.5-22.3,19.2c-1.7,6.2-2.1,11.8-0.4,14.1C255.9,91,256.8,91.8,258,91.4z M271.9,53.7
			c-6.6,0.4-13.2,11.6-16.1,21.9c9.5-5.4,22.1-15.5,21.7-19.3C277.4,54.2,274.6,53.5,271.9,53.7z"/>
		<g>
			<path class="st0" d="M104.4,92.8c-1.2,0-2.1-1.2-2.7-2.1c-6-8.9-5.6-22.6-5.2-28.1c1.4-16.4,7.7-35.2,19.3-56.1
				c-0.4-0.2-1.4-0.6-2.5-0.6c-1.2,0-2.3,0.4-3.1,1.2l0,0l0,0v0.2H110c-0.2,0.4-0.6,0.6-0.8,1l0.2,0.2C93,37.8,84.6,62,93.5,90.8
				c1,3.3,2.7,4.8,5,4.8c2.3,0,5-1.5,7.7-4.1c-0.4,0.4-0.8,0.6-1.2,0.8C105,92.6,104.6,92.8,104.4,92.8z M69.3,48.6
				c-1.2,1.7-2.3,3.3-3.3,4.8C67.2,51.9,68.4,50.4,69.3,48.6z M66.1,53.5c-0.6,0.8-1.2,1.5-1.7,2.3C64.9,55,65.5,54.2,66.1,53.5z
				 M27.4,88.7c6.4-2.7,14.9-8.9,23.4-17.2c3.5-3.5,8.5-8.7,13.5-15.5c-3.9,5-7.5,9.3-10.4,12.2C45.9,76.3,35.1,85.2,27.4,88.7z
				 M11.9,82.1c-0.2-1-0.2-2.1-0.2-3.3c0,1.2,0,2.5,0.2,3.5c0.6,3.9,2.7,6.4,6.2,7.4C14.6,88.7,12.5,86,11.9,82.1z"/>
			<path class="st0" d="M11.9,82.3c-0.2-1.2-0.2-2.3-0.2-3.5c0,1.2,0,2.3,0.2,3.3c0.6,4.1,2.7,6.6,6.2,7.5
				C14.6,88.7,12.5,86.2,11.9,82.3z M73.4,16.9c-17.6,7-33.5,17.4-45.1,30C16.9,59.7,10.1,73.4,11.5,82.3c0.8,5.2,4.1,7.9,9.5,7.9
				c0.2,0,0.6,0,0.8,0c6.4-0.2,17.8-7.5,29-18.8c7.4-7.4,20.9-22.4,29.6-42.4c-4.8,18.8-3.5,29.4-0.6,33.3c1.2,1.5,2.7,2.3,4.5,2.3
				c0.2,0,0.4,0,0.6,0H85v-0.2c0-0.4,5.6-32.7,23.2-55.1c-15.9,29-23.8,53-15.1,81.5c1,3.3,2.9,5,5.4,5c3.1,0,7.2-2.7,11-7.4
				c3.7-4.5,6.4-9.9,7-13.9v-0.2l-0.2-0.2v0.2c-3.5,12.2-9.5,16.8-11.2,17.6c-0.2,0.2-0.6,0.2-0.8,0.2c-1,0-1.9-1.2-2.3-2.1
				c-4.3-6.2-6-16.3-5.2-27.9c1.4-16.3,7.7-35.2,19.3-56.1V5.9l0,0c-0.4-0.4-1.5-0.8-2.9-0.8c-1.2,0-2.3,0.4-3.3,1.4l-0.2,0.2l0,0
				l0,0C98.2,20.4,89.3,40.3,84.6,62.8c0,0.2,0,0.2,0,0.4c-2.9-12.4,3.5-39.5,7-50.1v-0.2h-0.2c-0.8-0.4-1.7-0.4-2.9-0.4
				c-1.2,0-2.3,0.2-3.1,0.4L85,13l-0.4,1.2C78.2,39.3,62.4,58.7,53.5,68C40.1,81.9,27.2,89.7,21.9,89.9h-0.4c-5.4,0-8.7-2.7-9.3-7.7
				c-1.2-8.9,5.4-22.4,17-34.8C40.9,34.7,56.6,24.6,74,17.9 M27.4,88.7c7.7-3.5,18.6-12.2,26.5-20.5c2.9-3.1,6.6-7.2,10.4-12.2
				c-5,6.8-10.1,12-13.5,15.5C42.3,79.8,33.7,86,27.4,88.7z M69.3,48.6c-1.2,1.7-2.1,3.3-3.3,4.8C67.2,51.9,68.2,50.4,69.3,48.6z
				 M109.4,8l-0.2-0.2c0.2-0.4,0.6-0.6,0.8-1h0.2l0,0l0,0l0,0c1-0.8,1.9-1.2,3.1-1.2c1.2,0,2.1,0.4,2.5,0.6
				c-11.6,20.9-18,39.9-19.3,56.1c-0.4,5.4-0.8,19.2,5.2,28.1c0.4,1,1.4,2.1,2.7,2.1c0.4,0,0.6,0,1-0.2c0.4-0.2,0.8-0.4,1.2-0.8
				c-2.7,2.5-5.4,4.1-7.7,4.1c-2.3,0-4.1-1.5-5-4.8C84.6,62,93,37.8,109.4,8z"/>
		</g>
	</g>
</g>
</svg>
